<svg xmlns="http://www.w3.org/2000/svg" xmlns:xlink="http://www.w3.org/1999/xlink" viewBox="0 0 666 580" width="666" height="580" preserveAspectRatio="xMidYMid meet" style="width: 100%; height: 100%; transform: translate3d(0px, 0px, 0px); content-visibility: visible;"><defs><clipPath id="__lottie_element_69"><rect width="666" height="580" x="0" y="0"></rect></clipPath></defs><g clip-path="url(#__lottie_element_69)"><g transform="matrix(1,0,0,1,373.4740295410156,292.09002685546875)" opacity="1" style="display: block;"><g opacity="1" transform="matrix(1,0,0,1,0,0)"><path fill="rgb(255,255,255)" fill-opacity="1" d=" M-109.81800079345703,14.034000396728516 C-109.81800079345703,14.034000396728516 -253.60899353027344,157.27499389648438 -253.60899353027344,157.27499389648438 C-266.1180114746094,169.73899841308594 -257.2909851074219,191.10299682617188 -239.63400268554688,191.08999633789062 C-239.63400268554688,191.08999633789062 -104.3030014038086,191.08999633789062 -104.3030014038086,191.08999633789062 C-99.0719985961914,191.08999633789062 -94.0469970703125,189.01100158691406 -90.33399963378906,185.31700134277344 C-90.33399963378906,185.31700134277344 -13.986000061035156,109.27799987792969 -13.986000061035156,109.27799987792969 C-6.26200008392334,101.58599853515625 6.235000133514404,101.58599853515625 13.958999633789062,109.27799987792969 C13.958999633789062,109.27799987792969 90.30699920654297,185.31700134277344 90.30699920654297,185.31700134277344 C94.01399993896484,189.01800537109375 99.03800201416016,191.08999633789062 104.2760009765625,191.08999633789062 C104.2760009765625,191.08999633789062 239.6320037841797,191.08999633789062 239.6320037841797,191.08999633789062 C257.2950134277344,191.08999633789062 266.11700439453125,169.7270050048828 253.60800170898438,157.26300048828125 C253.60800170898438,157.26300048828125 109.81099700927734,14.027000427246094 109.81099700927734,14.027000427246094 C102.04199981689453,6.289999961853027 102.04199981689453,-6.289999961853027 109.81099700927734,-14.027000427246094 C109.81099700927734,-14.027000427246094 253.60800170898438,-157.26300048828125 253.60800170898438,-157.26300048828125 C266.11700439453125,-169.7270050048828 257.28900146484375,-191.08999633789062 239.6320037841797,-191.08999633789062 C239.6320037841797,-191.08999633789062 104.2760009765625,-191.08999633789062 104.2760009765625,-191.08999633789062 C99.04499816894531,-191.08999633789062 94.0199966430664,-189.01100158691406 90.30699920654297,-185.31700134277344 C90.30699920654297,-185.31700134277344 13.958999633789062,-109.27799987792969 13.958999633789062,-109.27799987792969 C6.235000133514404,-101.58599853515625 -6.26200008392334,-101.58599853515625 -13.986000061035156,-109.27799987792969 C-13.986000061035156,-109.27799987792969 -90.33399963378906,-185.31700134277344 -90.33399963378906,-185.31700134277344 C-94.04100036621094,-189.01800537109375 -99.06500244140625,-191.08999633789062 -104.3030014038086,-191.08999633789062 C-104.3030014038086,-191.08999633789062 -239.63400268554688,-191.08999633789062 -239.63400268554688,-191.08999633789062 C-257.2909851074219,-191.08999633789062 -266.1180114746094,-169.7270050048828 -253.60899353027344,-157.26300048828125 C-253.60899353027344,-157.26300048828125 -109.81800079345703,-14.020999908447266 -109.81800079345703,-14.020999908447266 C-102.04900360107422,-6.283999919891357 -102.04900360107422,6.296999931335449 -109.81800079345703,14.034000396728516z"></path></g></g></g></svg>